<svg xmlns="http://www.w3.org/2000/svg" width="1440" height="1000" viewBox="0 0 1440 1000" role="img" aria-labelledby="title desc"><title id="title">04-replaymobile M3 Expressive</title><desc id="desc">Tabula Design 02. Static design reference; sample data. This is not a runtime screenshot.</desc><rect x="0" y="0" width="1440" height="1000" rx="0" fill="#FFFBFF"/><text x="56" y="53" font-family="DejaVu Sans,Noto Sans CJK SC,sans-serif" font-size="27" font-weight="700" fill="#1E1C21" text-anchor="start">Tabula · 04-replay · Mobile &amp; trạng thái</text><text x="56" y="87" font-family="DejaVu Sans,Noto Sans CJK SC,sans-serif" font-size="14" font-weight="400" fill="#4B4650" text-anchor="start">Bố cục 390px được thiết kế riêng · 44dp controls · dữ liệu mẫu · không phải runtime screenshot</text><rect x="56" y="142" width="406" height="770" rx="22" fill="#1E1C21"/><rect x="64" y="150" width="390" height="754" rx="16" fill="#FFFBFF"/><rect x="64" y="150" width="390" height="58" rx="16" fill="#F4EDF7"/><rect x="64" y="192" width="390" height="16" rx="0" fill="#F4EDF7"/><text x="80" y="186" font-family="DejaVu Sans,Noto Sans CJK SC,sans-serif" font-size="21" font-weight="700" fill="#5634BE" text-anchor="start">T.  tabula</text><text x="438" y="186" font-family="DejaVu Sans,Noto Sans CJK SC,sans-serif" font-size="25" font-weight="400" fill="#4B4650" text-anchor="end">≡</text><text x="80" y="244" font-family="DejaVu Sans,Noto Sans CJK SC,sans-serif" font-size="21" font-weight="700" fill="#1E1C21" text-anchor="start">Ván của tôi</text><rect x="80" y="262" width="196" height="28" rx="14" fill="#F3E6D2"/><text x="178.0" y="281" font-family="DejaVu Sans,Noto Sans CJK SC,sans-serif" font-size="11" font-weight="600" fill="#62472E" text-anchor="middle">Dự kiến / có gate</text><rect x="64" y="848" width="390" height="56" rx="0" fill="#F4EDF7"/><text x="113" y="882" font-family="DejaVu Sans,Noto Sans CJK SC,sans-serif" font-size="10" font-weight="600" fill="#4B4650" text-anchor="middle">Thư viện</text><text x="210" y="882" font-family="DejaVu Sans,Noto Sans CJK SC,sans-serif" font-size="10" font-weight="600" fill="#5634BE" text-anchor="middle">Ván của tôi</text><text x="307" y="882" font-family="DejaVu Sans,Noto Sans CJK SC,sans-serif" font-size="10" font-weight="600" fill="#4B4650" text-anchor="middle">Phòng</text><text x="404" y="882" font-family="DejaVu Sans,Noto Sans CJK SC,sans-serif" font-size="10" font-weight="600" fill="#4B4650" text-anchor="middle">Cài đặt</text><rect x="80" y="312" width="172" height="48" rx="24" fill="#CFBCFF"/><text x="166.0" y="342" font-family="DejaVu Sans,Noto Sans CJK SC,sans-serif" font-size="14" font-weight="600" fill="#32007E" text-anchor="middle">Tất cả game</text><rect x="266" y="312" width="172" height="48" rx="24" fill="#EAE3ED"/><text x="352.0" y="342" font-family="DejaVu Sans,Noto Sans CJK SC,sans-serif" font-size="14" font-weight="600" fill="#4B4650" text-anchor="middle">Nhập replay</text><rect x="80" y="382" width="358" height="112" rx="28" fill="#F4EDF7"/><text x="100" y="416" font-family="DejaVu Sans,Noto Sans CJK SC,sans-serif" font-size="18" font-weight="600" fill="#1E1C21" text-anchor="start">Cờ vua · Trắng thắng</text><text x="96" y="445" font-family="DejaVu Sans,Noto Sans CJK SC,sans-serif" font-size="11" font-weight="400" fill="#4B4650" text-anchor="start">42 lượt · Local · mẫu</text><text x="422" y="475" font-family="DejaVu Sans,Noto Sans CJK SC,sans-serif" font-size="12" font-weight="600" fill="#5634BE" text-anchor="end">Xem lại →</text><rect x="80" y="508" width="358" height="112" rx="28" fill="#F4EDF7"/><text x="100" y="542" font-family="DejaVu Sans,Noto Sans CJK SC,sans-serif" font-size="18" font-weight="600" fill="#1E1C21" text-anchor="start">Miền đất nhỏ · 28 điểm</text><text x="96" y="571" font-family="DejaVu Sans,Noto Sans CJK SC,sans-serif" font-size="11" font-weight="400" fill="#4B4650" text-anchor="start">36 lượt · Local · mẫu</text><text x="422" y="601" font-family="DejaVu Sans,Noto Sans CJK SC,sans-serif" font-size="12" font-weight="600" fill="#5634BE" text-anchor="end">Xem lại →</text><rect x="80" y="634" width="358" height="112" rx="28" fill="#F4EDF7"/><text x="100" y="668" font-family="DejaVu Sans,Noto Sans CJK SC,sans-serif" font-size="18" font-weight="600" fill="#1E1C21" text-anchor="start">Cờ vua · Hòa</text><text x="96" y="697" font-family="DejaVu Sans,Noto Sans CJK SC,sans-serif" font-size="11" font-weight="400" fill="#4B4650" text-anchor="start">58 lượt · Local · mẫu</text><text x="422" y="727" font-family="DejaVu Sans,Noto Sans CJK SC,sans-serif" font-size="12" font-weight="600" fill="#5634BE" text-anchor="end">Xem lại →</text><rect x="517" y="142" width="406" height="770" rx="22" fill="#1E1C21"/><rect x="525" y="150" width="390" height="754" rx="16" fill="#FFFBFF"/><rect x="525" y="150" width="390" height="58" rx="16" fill="#F4EDF7"/><rect x="525" y="192" width="390" height="16" rx="0" fill="#F4EDF7"/><text x="541" y="186" font-family="DejaVu Sans,Noto Sans CJK SC,sans-serif" font-size="21" font-weight="700" fill="#5634BE" text-anchor="start">T.  tabula</text><text x="899" y="186" font-family="DejaVu Sans,Noto Sans CJK SC,sans-serif" font-size="25" font-weight="400" fill="#4B4650" text-anchor="end">≡</text><text x="541" y="244" font-family="DejaVu Sans,Noto Sans CJK SC,sans-serif" font-size="21" font-weight="700" fill="#1E1C21" text-anchor="start">Kết quả ván</text><rect x="541" y="262" width="196" height="28" rx="14" fill="#F3E6D2"/><text x="639.0" y="281" font-family="DejaVu Sans,Noto Sans CJK SC,sans-serif" font-size="11" font-weight="600" fill="#62472E" text-anchor="middle">Dự kiến / có gate</text><rect x="525" y="848" width="390" height="56" rx="0" fill="#F4EDF7"/><text x="574" y="882" font-family="DejaVu Sans,Noto Sans CJK SC,sans-serif" font-size="10" font-weight="600" fill="#4B4650" text-anchor="middle">Thư viện</text><text x="671" y="882" font-family="DejaVu Sans,Noto Sans CJK SC,sans-serif" font-size="10" font-weight="600" fill="#5634BE" text-anchor="middle">Ván của tôi</text><text x="768" y="882" font-family="DejaVu Sans,Noto Sans CJK SC,sans-serif" font-size="10" font-weight="600" fill="#4B4650" text-anchor="middle">Phòng</text><text x="865" y="882" font-family="DejaVu Sans,Noto Sans CJK SC,sans-serif" font-size="10" font-weight="600" fill="#4B4650" text-anchor="middle">Cài đặt</text><rect x="541" y="312" width="358" height="228" rx="28" fill="#F4EDF7"/><rect x="557" y="332" width="216" height="28" rx="14" fill="#EAE3ED"/><text x="665.0" y="351" font-family="DejaVu Sans,Noto Sans CJK SC,sans-serif" font-size="11" font-weight="600" fill="#4B4650" text-anchor="middle">Cờ vua · Local · mẫu</text><text x="557" y="406" font-family="DejaVu Sans,Noto Sans CJK SC,sans-serif" font-size="27" font-weight="700" fill="#1E1C21" text-anchor="start">Trắng thắng</text><text x="557" y="437" font-family="DejaVu Sans,Noto Sans CJK SC,sans-serif" font-size="12" font-weight="400" fill="#4B4650" text-anchor="start">Chiếu hết · 42 lượt · dữ liệu mẫu</text><rect x="557" y="476" width="326" height="48" rx="24" fill="#5634BE"/><text x="720.0" y="506" font-family="DejaVu Sans,Noto Sans CJK SC,sans-serif" font-size="14" font-weight="600" fill="white" text-anchor="middle">Xem replay →</text><rect x="541" y="564" width="358" height="162" rx="28" fill="#F4EDF7"/><text x="561" y="598" font-family="DejaVu Sans,Noto Sans CJK SC,sans-serif" font-size="18" font-weight="600" fill="#1E1C21" text-anchor="start">Nguồn kết quả</text><text x="557" y="622" font-family="DejaVu Sans,Noto Sans CJK SC,sans-serif" font-size="12" font-weight="400" fill="#4B4650" text-anchor="start">GameResult từ module.</text><text x="557" y="646" font-family="DejaVu Sans,Noto Sans CJK SC,sans-serif" font-size="12" font-weight="400" fill="#4B4650" text-anchor="start">Không có accuracy/Elo giả.</text><text x="557" y="670" font-family="DejaVu Sans,Noto Sans CJK SC,sans-serif" font-size="12" font-weight="400" fill="#4B4650" text-anchor="start">Lỗi lưu vẫn giữ kết quả trên màn.</text><rect x="541" y="758" width="358" height="48" rx="24" fill="#EAE3ED"/><text x="720.0" y="788" font-family="DejaVu Sans,Noto Sans CJK SC,sans-serif" font-size="14" font-weight="600" fill="#4B4650" text-anchor="middle">Chơi ván mới</text><rect x="978" y="142" width="406" height="770" rx="22" fill="#1E1C21"/><rect x="986" y="150" width="390" height="754" rx="16" fill="#FFFBFF"/><rect x="986" y="150" width="390" height="58" rx="16" fill="#F4EDF7"/><rect x="986" y="192" width="390" height="16" rx="0" fill="#F4EDF7"/><text x="1002" y="186" font-family="DejaVu Sans,Noto Sans CJK SC,sans-serif" font-size="21" font-weight="700" fill="#5634BE" text-anchor="start">T.  tabula</text><text x="1360" y="186" font-family="DejaVu Sans,Noto Sans CJK SC,sans-serif" font-size="25" font-weight="400" fill="#4B4650" text-anchor="end">≡</text><text x="1002" y="244" font-family="DejaVu Sans,Noto Sans CJK SC,sans-serif" font-size="21" font-weight="700" fill="#1E1C21" text-anchor="start">Replay · ply12</text><rect x="1002" y="262" width="196" height="28" rx="14" fill="#F3E6D2"/><text x="1100.0" y="281" font-family="DejaVu Sans,Noto Sans CJK SC,sans-serif" font-size="11" font-weight="600" fill="#62472E" text-anchor="middle">Dự kiến / có gate</text><rect x="986" y="848" width="390" height="56" rx="0" fill="#F4EDF7"/><text x="1035" y="882" font-family="DejaVu Sans,Noto Sans CJK SC,sans-serif" font-size="10" font-weight="600" fill="#4B4650" text-anchor="middle">Thư viện</text><text x="1132" y="882" font-family="DejaVu Sans,Noto Sans CJK SC,sans-serif" font-size="10" font-weight="600" fill="#5634BE" text-anchor="middle">Ván của tôi</text><text x="1229" y="882" font-family="DejaVu Sans,Noto Sans CJK SC,sans-serif" font-size="10" font-weight="600" fill="#4B4650" text-anchor="middle">Phòng</text><text x="1326" y="882" font-family="DejaVu Sans,Noto Sans CJK SC,sans-serif" font-size="10" font-weight="600" fill="#4B4650" text-anchor="middle">Cài đặt</text><rect x="1004" y="317" width="354" height="354" rx="12" fill="#5C6B59"/><rect x="1012.0" y="325.0" width="42.25" height="42.25" rx="0" fill="#EEE7DA"/><text paint-order="stroke fill" stroke="#606C58" stroke-width="1.6" x="1033.125" y="357.955" font-family="DejaVu Sans,Noto Sans CJK SC,sans-serif" font-size="33.377500000000005" font-weight="500" fill="#343440" text-anchor="middle">♜</text><rect x="1054.25" y="325.0" width="42.25" height="42.25" rx="0" fill="#9AA996"/><rect x="1096.5" y="325.0" width="42.25" height="42.25" rx="0" fill="#EEE7DA"/><text paint-order="stroke fill" stroke="#606C58" stroke-width="1.6" x="1117.625" y="357.955" font-family="DejaVu Sans,Noto Sans CJK SC,sans-serif" font-size="33.377500000000005" font-weight="500" fill="#343440" text-anchor="middle">♝</text><rect x="1138.75" y="325.0" width="42.25" height="42.25" rx="0" fill="#9AA996"/><text paint-order="stroke fill" stroke="#606C58" stroke-width="1.6" x="1159.875" y="357.955" font-family="DejaVu Sans,Noto Sans CJK SC,sans-serif" font-size="33.377500000000005" font-weight="500" fill="#343440" text-anchor="middle">♛</text><rect x="1181.0" y="325.0" width="42.25" height="42.25" rx="0" fill="#D9D38D"/><rect x="1223.25" y="325.0" width="42.25" height="42.25" rx="0" fill="#9AA996"/><text paint-order="stroke fill" stroke="#606C58" stroke-width="1.6" x="1244.375" y="357.955" font-family="DejaVu Sans,Noto Sans CJK SC,sans-serif" font-size="33.377500000000005" font-weight="500" fill="#343440" text-anchor="middle">♜</text><rect x="1265.5" y="325.0" width="42.25" height="42.25" rx="0" fill="#D9D38D"/><text paint-order="stroke fill" stroke="#606C58" stroke-width="1.6" x="1286.625" y="357.955" font-family="DejaVu Sans,Noto Sans CJK SC,sans-serif" font-size="33.377500000000005" font-weight="500" fill="#343440" text-anchor="middle">♚</text><rect x="1307.75" y="325.0" width="42.25" height="42.25" rx="0" fill="#9AA996"/><rect x="1012.0" y="367.25" width="42.25" height="42.25" rx="0" fill="#9AA996"/><text paint-order="stroke fill" stroke="#606C58" stroke-width="1.6" x="1033.125" y="400.205" font-family="DejaVu Sans,Noto Sans CJK SC,sans-serif" font-size="33.377500000000005" font-weight="500" fill="#343440" text-anchor="middle">♟</text><rect x="1054.25" y="367.25" width="42.25" height="42.25" rx="0" fill="#EEE7DA"/><text paint-order="stroke fill" stroke="#606C58" stroke-width="1.6" x="1075.375" y="400.205" font-family="DejaVu Sans,Noto Sans CJK SC,sans-serif" font-size="33.377500000000005" font-weight="500" fill="#343440" text-anchor="middle">♟</text><rect x="1096.5" y="367.25" width="42.25" height="42.25" rx="0" fill="#9AA996"/><text paint-order="stroke fill" stroke="#606C58" stroke-width="1.6" x="1117.625" y="400.205" font-family="DejaVu Sans,Noto Sans CJK SC,sans-serif" font-size="33.377500000000005" font-weight="500" fill="#343440" text-anchor="middle">♟</text><rect x="1138.75" y="367.25" width="42.25" height="42.25" rx="0" fill="#EEE7DA"/><rect x="1181.0" y="367.25" width="42.25" height="42.25" rx="0" fill="#9AA996"/><rect x="1223.25" y="367.25" width="42.25" height="42.25" rx="0" fill="#EEE7DA"/><text paint-order="stroke fill" stroke="#606C58" stroke-width="1.6" x="1244.375" y="400.205" font-family="DejaVu Sans,Noto Sans CJK SC,sans-serif" font-size="33.377500000000005" font-weight="500" fill="#343440" text-anchor="middle">♟</text><rect x="1265.5" y="367.25" width="42.25" height="42.25" rx="0" fill="#9AA996"/><text paint-order="stroke fill" stroke="#606C58" stroke-width="1.6" x="1286.625" y="400.205" font-family="DejaVu Sans,Noto Sans CJK SC,sans-serif" font-size="33.377500000000005" font-weight="500" fill="#343440" text-anchor="middle">♟</text><rect x="1307.75" y="367.25" width="42.25" height="42.25" rx="0" fill="#EEE7DA"/><text paint-order="stroke fill" stroke="#606C58" stroke-width="1.6" x="1328.875" y="400.205" font-family="DejaVu Sans,Noto Sans CJK SC,sans-serif" font-size="33.377500000000005" font-weight="500" fill="#343440" text-anchor="middle">♟</text><rect x="1012.0" y="409.5" width="42.25" height="42.25" rx="0" fill="#EEE7DA"/><rect x="1054.25" y="409.5" width="42.25" height="42.25" rx="0" fill="#9AA996"/><rect x="1096.5" y="409.5" width="42.25" height="42.25" rx="0" fill="#EEE7DA"/><text paint-order="stroke fill" stroke="#606C58" stroke-width="1.6" x="1117.625" y="442.45500000000004" font-family="DejaVu Sans,Noto Sans CJK SC,sans-serif" font-size="33.377500000000005" font-weight="500" fill="#343440" text-anchor="middle">♞</text><rect x="1138.75" y="409.5" width="42.25" height="42.25" rx="0" fill="#9AA996"/><text paint-order="stroke fill" stroke="#606C58" stroke-width="1.6" x="1159.875" y="442.45500000000004" font-family="DejaVu Sans,Noto Sans CJK SC,sans-serif" font-size="33.377500000000005" font-weight="500" fill="#343440" text-anchor="middle">♟</text><rect x="1181.0" y="409.5" width="42.25" height="42.25" rx="0" fill="#EEE7DA"/><rect x="1223.25" y="409.5" width="42.25" height="42.25" rx="0" fill="#9AA996"/><text paint-order="stroke fill" stroke="#606C58" stroke-width="1.6" x="1244.375" y="442.45500000000004" font-family="DejaVu Sans,Noto Sans CJK SC,sans-serif" font-size="33.377500000000005" font-weight="500" fill="#343440" text-anchor="middle">♞</text><rect x="1265.5" y="409.5" width="42.25" height="42.25" rx="0" fill="#EEE7DA"/><rect x="1307.75" y="409.5" width="42.25" height="42.25" rx="0" fill="#9AA996"/><rect x="1012.0" y="451.75" width="42.25" height="42.25" rx="0" fill="#9AA996"/><rect x="1054.25" y="451.75" width="42.25" height="42.25" rx="0" fill="#EEE7DA"/><rect x="1096.5" y="451.75" width="42.25" height="42.25" rx="0" fill="#9AA996"/><text paint-order="stroke fill" stroke="#606C58" stroke-width="1.6" x="1117.625" y="484.70500000000004" font-family="DejaVu Sans,Noto Sans CJK SC,sans-serif" font-size="33.377500000000005" font-weight="500" fill="#343440" text-anchor="middle">♝</text><rect x="1138.75" y="451.75" width="42.25" height="42.25" rx="0" fill="#EEE7DA"/><rect x="1181.0" y="451.75" width="42.25" height="42.25" rx="0" fill="#9AA996"/><text paint-order="stroke fill" stroke="#606C58" stroke-width="1.6" x="1202.125" y="484.70500000000004" font-family="DejaVu Sans,Noto Sans CJK SC,sans-serif" font-size="33.377500000000005" font-weight="500" fill="#343440" text-anchor="middle">♟</text><rect x="1223.25" y="451.75" width="42.25" height="42.25" rx="0" fill="#EEE7DA"/><rect x="1265.5" y="451.75" width="42.25" height="42.25" rx="0" fill="#9AA996"/><rect x="1307.75" y="451.75" width="42.25" height="42.25" rx="0" fill="#EEE7DA"/><rect x="1012.0" y="494.0" width="42.25" height="42.25" rx="0" fill="#EEE7DA"/><rect x="1054.25" y="494.0" width="42.25" height="42.25" rx="0" fill="#9AA996"/><rect x="1096.5" y="494.0" width="42.25" height="42.25" rx="0" fill="#EEE7DA"/><text paint-order="stroke fill" stroke="#606C58" stroke-width="1.6" x="1117.625" y="526.955" font-family="DejaVu Sans,Noto Sans CJK SC,sans-serif" font-size="33.377500000000005" font-weight="500" fill="#FFFCF3" text-anchor="middle">♝</text><rect x="1138.75" y="494.0" width="42.25" height="42.25" rx="0" fill="#9AA996"/><rect x="1181.0" y="494.0" width="42.25" height="42.25" rx="0" fill="#EEE7DA"/><text paint-order="stroke fill" stroke="#606C58" stroke-width="1.6" x="1202.125" y="526.955" font-family="DejaVu Sans,Noto Sans CJK SC,sans-serif" font-size="33.377500000000005" font-weight="500" fill="#FFFCF3" text-anchor="middle">♟</text><rect x="1223.25" y="494.0" width="42.25" height="42.25" rx="0" fill="#9AA996"/><rect x="1265.5" y="494.0" width="42.25" height="42.25" rx="0" fill="#EEE7DA"/><rect x="1307.75" y="494.0" width="42.25" height="42.25" rx="0" fill="#9AA996"/><rect x="1012.0" y="536.25" width="42.25" height="42.25" rx="0" fill="#9AA996"/><rect x="1054.25" y="536.25" width="42.25" height="42.25" rx="0" fill="#EEE7DA"/><rect x="1096.5" y="536.25" width="42.25" height="42.25" rx="0" fill="#9AA996"/><text paint-order="stroke fill" stroke="#606C58" stroke-width="1.6" x="1117.625" y="569.205" font-family="DejaVu Sans,Noto Sans CJK SC,sans-serif" font-size="33.377500000000005" font-weight="500" fill="#FFFCF3" text-anchor="middle">♞</text><rect x="1138.75" y="536.25" width="42.25" height="42.25" rx="0" fill="#EEE7DA"/><text paint-order="stroke fill" stroke="#606C58" stroke-width="1.6" x="1159.875" y="569.205" font-family="DejaVu Sans,Noto Sans CJK SC,sans-serif" font-size="33.377500000000005" font-weight="500" fill="#FFFCF3" text-anchor="middle">♟</text><rect x="1181.0" y="536.25" width="42.25" height="42.25" rx="0" fill="#9AA996"/><rect x="1223.25" y="536.25" width="42.25" height="42.25" rx="0" fill="#EEE7DA"/><text paint-order="stroke fill" stroke="#606C58" stroke-width="1.6" x="1244.375" y="569.205" font-family="DejaVu Sans,Noto Sans CJK SC,sans-serif" font-size="33.377500000000005" font-weight="500" fill="#FFFCF3" text-anchor="middle">♞</text><rect x="1265.5" y="536.25" width="42.25" height="42.25" rx="0" fill="#9AA996"/><rect x="1307.75" y="536.25" width="42.25" height="42.25" rx="0" fill="#EEE7DA"/><rect x="1012.0" y="578.5" width="42.25" height="42.25" rx="0" fill="#EEE7DA"/><text paint-order="stroke fill" stroke="#606C58" stroke-width="1.6" x="1033.125" y="611.4549999999999" font-family="DejaVu Sans,Noto Sans CJK SC,sans-serif" font-size="33.377500000000005" font-weight="500" fill="#FFFCF3" text-anchor="middle">♟</text><rect x="1054.25" y="578.5" width="42.25" height="42.25" rx="0" fill="#9AA996"/><text paint-order="stroke fill" stroke="#606C58" stroke-width="1.6" x="1075.375" y="611.4549999999999" font-family="DejaVu Sans,Noto Sans CJK SC,sans-serif" font-size="33.377500000000005" font-weight="500" fill="#FFFCF3" text-anchor="middle">♟</text><rect x="1096.5" y="578.5" width="42.25" height="42.25" rx="0" fill="#EEE7DA"/><text paint-order="stroke fill" stroke="#606C58" stroke-width="1.6" x="1117.625" y="611.4549999999999" font-family="DejaVu Sans,Noto Sans CJK SC,sans-serif" font-size="33.377500000000005" font-weight="500" fill="#FFFCF3" text-anchor="middle">♟</text><rect x="1138.75" y="578.5" width="42.25" height="42.25" rx="0" fill="#9AA996"/><rect x="1181.0" y="578.5" width="42.25" height="42.25" rx="0" fill="#EEE7DA"/><rect x="1223.25" y="578.5" width="42.25" height="42.25" rx="0" fill="#9AA996"/><text paint-order="stroke fill" stroke="#606C58" stroke-width="1.6" x="1244.375" y="611.4549999999999" font-family="DejaVu Sans,Noto Sans CJK SC,sans-serif" font-size="33.377500000000005" font-weight="500" fill="#FFFCF3" text-anchor="middle">♟</text><rect x="1265.5" y="578.5" width="42.25" height="42.25" rx="0" fill="#EEE7DA"/><text paint-order="stroke fill" stroke="#606C58" stroke-width="1.6" x="1286.625" y="611.4549999999999" font-family="DejaVu Sans,Noto Sans CJK SC,sans-serif" font-size="33.377500000000005" font-weight="500" fill="#FFFCF3" text-anchor="middle">♟</text><rect x="1307.75" y="578.5" width="42.25" height="42.25" rx="0" fill="#9AA996"/><text paint-order="stroke fill" stroke="#606C58" stroke-width="1.6" x="1328.875" y="611.4549999999999" font-family="DejaVu Sans,Noto Sans CJK SC,sans-serif" font-size="33.377500000000005" font-weight="500" fill="#FFFCF3" text-anchor="middle">♟</text><rect x="1012.0" y="620.75" width="42.25" height="42.25" rx="0" fill="#9AA996"/><text paint-order="stroke fill" stroke="#606C58" stroke-width="1.6" x="1033.125" y="653.7049999999999" font-family="DejaVu Sans,Noto Sans CJK SC,sans-serif" font-size="33.377500000000005" font-weight="500" fill="#FFFCF3" text-anchor="middle">♜</text><rect x="1054.25" y="620.75" width="42.25" height="42.25" rx="0" fill="#EEE7DA"/><rect x="1096.5" y="620.75" width="42.25" height="42.25" rx="0" fill="#9AA996"/><text paint-order="stroke fill" stroke="#606C58" stroke-width="1.6" x="1117.625" y="653.7049999999999" font-family="DejaVu Sans,Noto Sans CJK SC,sans-serif" font-size="33.377500000000005" font-weight="500" fill="#FFFCF3" text-anchor="middle">♝</text><rect x="1138.75" y="620.75" width="42.25" height="42.25" rx="0" fill="#EEE7DA"/><text paint-order="stroke fill" stroke="#606C58" stroke-width="1.6" x="1159.875" y="653.7049999999999" font-family="DejaVu Sans,Noto Sans CJK SC,sans-serif" font-size="33.377500000000005" font-weight="500" fill="#FFFCF3" text-anchor="middle">♛</text><rect x="1181.0" y="620.75" width="42.25" height="42.25" rx="0" fill="#9AA996"/><rect x="1223.25" y="620.75" width="42.25" height="42.25" rx="0" fill="#EEE7DA"/><text paint-order="stroke fill" stroke="#606C58" stroke-width="1.6" x="1244.375" y="653.7049999999999" font-family="DejaVu Sans,Noto Sans CJK SC,sans-serif" font-size="33.377500000000005" font-weight="500" fill="#FFFCF3" text-anchor="middle">♜</text><rect x="1265.5" y="620.75" width="42.25" height="42.25" rx="0" fill="#9AA996"/><text paint-order="stroke fill" stroke="#606C58" stroke-width="1.6" x="1286.625" y="653.7049999999999" font-family="DejaVu Sans,Noto Sans CJK SC,sans-serif" font-size="33.377500000000005" font-weight="500" fill="#FFFCF3" text-anchor="middle">♚</text><rect x="1307.75" y="620.75" width="42.25" height="42.25" rx="0" fill="#EEE7DA"/><text x="1033.125" y="685" font-family="DejaVu Sans Mono,Noto Sans CJK SC,sans-serif" font-size="11" font-weight="400" fill="#4B4650" text-anchor="middle">a</text><text x="1075.375" y="685" font-family="DejaVu Sans Mono,Noto Sans CJK SC,sans-serif" font-size="11" font-weight="400" fill="#4B4650" text-anchor="middle">b</text><text x="1117.625" y="685" font-family="DejaVu Sans Mono,Noto Sans CJK SC,sans-serif" font-size="11" font-weight="400" fill="#4B4650" text-anchor="middle">c</text><text x="1159.875" y="685" font-family="DejaVu Sans Mono,Noto Sans CJK SC,sans-serif" font-size="11" font-weight="400" fill="#4B4650" text-anchor="middle">d</text><text x="1202.125" y="685" font-family="DejaVu Sans Mono,Noto Sans CJK SC,sans-serif" font-size="11" font-weight="400" fill="#4B4650" text-anchor="middle">e</text><text x="1244.375" y="685" font-family="DejaVu Sans Mono,Noto Sans CJK SC,sans-serif" font-size="11" font-weight="400" fill="#4B4650" text-anchor="middle">f</text><text x="1286.625" y="685" font-family="DejaVu Sans Mono,Noto Sans CJK SC,sans-serif" font-size="11" font-weight="400" fill="#4B4650" text-anchor="middle">g</text><text x="1328.875" y="685" font-family="DejaVu Sans Mono,Noto Sans CJK SC,sans-serif" font-size="11" font-weight="400" fill="#4B4650" text-anchor="middle">h</text><text x="994" y="348.2375" font-family="DejaVu Sans Mono,Noto Sans CJK SC,sans-serif" font-size="11" font-weight="400" fill="#4B4650" text-anchor="middle">8</text><text x="994" y="390.4875" font-family="DejaVu Sans Mono,Noto Sans CJK SC,sans-serif" font-size="11" font-weight="400" fill="#4B4650" text-anchor="middle">7</text><text x="994" y="432.7375" font-family="DejaVu Sans Mono,Noto Sans CJK SC,sans-serif" font-size="11" font-weight="400" fill="#4B4650" text-anchor="middle">6</text><text x="994" y="474.98749999999995" font-family="DejaVu Sans Mono,Noto Sans CJK SC,sans-serif" font-size="11" font-weight="400" fill="#4B4650" text-anchor="middle">5</text><text x="994" y="517.2375" font-family="DejaVu Sans Mono,Noto Sans CJK SC,sans-serif" font-size="11" font-weight="400" fill="#4B4650" text-anchor="middle">4</text><text x="994" y="559.4875" font-family="DejaVu Sans Mono,Noto Sans CJK SC,sans-serif" font-size="11" font-weight="400" fill="#4B4650" text-anchor="middle">3</text><text x="994" y="601.7375" font-family="DejaVu Sans Mono,Noto Sans CJK SC,sans-serif" font-size="11" font-weight="400" fill="#4B4650" text-anchor="middle">2</text><text x="994" y="643.9875" font-family="DejaVu Sans Mono,Noto Sans CJK SC,sans-serif" font-size="11" font-weight="400" fill="#4B4650" text-anchor="middle">1</text><rect x="1225.25" y="538.25" width="38.25" height="38.25" rx="0" fill="none" stroke="#5634BE" stroke-width="3"/><circle cx="1159.875" cy="515.125" r="8" fill="#106F3D"/><circle cx="1286.625" cy="472.875" r="8" fill="#106F3D"/><circle cx="1328.875" cy="515.125" r="8" fill="#106F3D"/><circle cx="1202.125" cy="641.875" r="8" fill="#106F3D"/><circle cx="1202.125" cy="472.875" r="18.1675" fill="none" stroke="#106F3D" stroke-width="3"/><rect x="1002" y="699" width="184" height="28" rx="14" fill="#CFBCFF"/><text x="1094.0" y="718" font-family="DejaVu Sans,Noto Sans CJK SC,sans-serif" font-size="11" font-weight="600" fill="#32007E" text-anchor="middle">Bản gốc chỉ đọc</text><rect x="1002" y="742" width="78" height="48" rx="24" fill="#EAE3ED"/><text x="1041.0" y="772" font-family="DejaVu Sans,Noto Sans CJK SC,sans-serif" font-size="14" font-weight="600" fill="#4B4650" text-anchor="middle">|‹</text><rect x="1094" y="742" width="78" height="48" rx="24" fill="#EAE3ED"/><text x="1133.0" y="772" font-family="DejaVu Sans,Noto Sans CJK SC,sans-serif" font-size="14" font-weight="600" fill="#4B4650" text-anchor="middle">‹</text><rect x="1186" y="742" width="78" height="48" rx="24" fill="#EAE3ED"/><text x="1225.0" y="772" font-family="DejaVu Sans,Noto Sans CJK SC,sans-serif" font-size="14" font-weight="600" fill="#4B4650" text-anchor="middle">›</text><rect x="1278" y="742" width="82" height="48" rx="24" fill="#EAE3ED"/><text x="1319.0" y="772" font-family="DejaVu Sans,Noto Sans CJK SC,sans-serif" font-size="14" font-weight="600" fill="#4B4650" text-anchor="middle">›|</text><text x="1002" y="814" font-family="DejaVu Sans,Noto Sans CJK SC,sans-serif" font-size="11" font-weight="400" fill="#4B4650" text-anchor="start">Nhánh thử riêng; ←/→ bước lượt</text><text x="64" y="965" font-family="DejaVu Sans,Noto Sans CJK SC,sans-serif" font-size="12" font-weight="400" fill="#4B4650" text-anchor="start">Responsive contract: drawer + 56px nav · board trước detail sheet · zoom200% không bị khóa · target 44dp</text></svg>