<svg xmlns="http://www.w3.org/2000/svg" xmlns:xlink="http://www.w3.org/1999/xlink" width="390" height="1050" viewBox="0 0 390 1050"><defs>
<symbol id="wK" viewBox="0 0 96 96">
  <g fill="#F7F1E4" stroke="#273638" stroke-width="2.8" stroke-linecap="round" stroke-linejoin="round">
  <path d="M43 7 H53 V16 H62 V26 H53 V34 H61 Q63 37 60 42 L57 48 Q55 59 66 70 L65 73 H31 L30 70 Q41 59 39 48 L36 42 Q33 37 35 34 H43 V26 H34 V16 H43 Z"/>
  <path d="M43 40 H48 V48 Q48 58 39 68 H34 Q44 58 43 48 Z" fill="#FFFFFF" fill-opacity=".66" stroke="none"/>
  <path d="M38 38 H58" stroke="#B58D42" stroke-width="3"/><path d="M39 48 H57" stroke="#273638" stroke-width="2.4"/>
  <path d="M28 71 H68 Q68 75 71 77 Q76 81 77 86 H19 Q20 81 25 77 Q28 75 28 71 Z"/>
  <path d="M29 72 H67" fill="none" stroke="#B58D42" stroke-width="3"/>
  <path d="M25 82 H71" fill="none" stroke="#273638" stroke-opacity=".46" stroke-width="2"/>
  </g>
</symbol>
<symbol id="wQ" viewBox="0 0 96 96">
  <g fill="#F7F1E4" stroke="#273638" stroke-width="2.8" stroke-linecap="round" stroke-linejoin="round">
  <path d="M28 44 L19 20 L33 31 L35 17 L43 31 L48 12 L53 31 L61 17 L63 31 L77 20 L68 44 Q66 49 56 51 Q56 61 66 70 L65 73 H31 L30 70 Q40 61 40 51 Q30 49 28 44 Z"/>
  <path d="M32 44 H42 L43 50 Q43 60 36 68 H33 Q42 59 40 50 Z" fill="#FFFFFF" fill-opacity=".66" stroke="none"/>
  <circle cx="19" cy="20" r="3.4"/>
  <circle cx="35" cy="17" r="3.4"/>
  <circle cx="48" cy="12" r="3.4"/>
  <circle cx="61" cy="17" r="3.4"/>
  <circle cx="77" cy="20" r="3.4"/>
  <path d="M29 44 H67" stroke="#B58D42" stroke-width="3"/><path d="M40 52 H56" stroke="#273638" stroke-width="2.4"/>
  <path d="M28 71 H68 Q68 75 71 77 Q76 81 77 86 H19 Q20 81 25 77 Q28 75 28 71 Z"/>
  <path d="M29 72 H67" fill="none" stroke="#B58D42" stroke-width="3"/>
  <path d="M25 82 H71" fill="none" stroke="#273638" stroke-opacity=".46" stroke-width="2"/>
  </g>
</symbol>
<symbol id="wB" viewBox="0 0 96 96">
  <g fill="#F7F1E4" stroke="#273638" stroke-width="2.8" stroke-linecap="round" stroke-linejoin="round">
  <path d="M48 11 C43 18 30 23 30 34 C30 43 36 48 42 51 Q42 60 32 70 L31 73 H65 L64 70 Q54 60 54 51 C60 48 66 43 66 34 C66 23 53 18 48 11 Z"/>
  <path d="M44 22 Q34 28 35 35 Q36 43 44 47 L43 52 Q43 60 36 68 H33 Q43 59 42 51 Q32 44 32 34 Q33 27 44 22 Z" fill="#FFFFFF" fill-opacity=".66" stroke="none"/>
  <path d="M54 23 L44 36" stroke="#273638" stroke-width="4.5"/><path d="M40 52 H56" stroke="#B58D42" stroke-width="3"/>
  <path d="M28 71 H68 Q68 75 71 77 Q76 81 77 86 H19 Q20 81 25 77 Q28 75 28 71 Z"/>
  <path d="M29 72 H67" fill="none" stroke="#B58D42" stroke-width="3"/>
  <path d="M25 82 H71" fill="none" stroke="#273638" stroke-opacity=".46" stroke-width="2"/>
  </g>
</symbol>
<symbol id="wN" viewBox="0 0 96 96">
  <g fill="#F7F1E4" stroke="#273638" stroke-width="2.8" stroke-linecap="round" stroke-linejoin="round">
  <path d="M30 71 Q32 62 40 55 L42 43 L29 47 L19 41 L23 31 L36 23 L39 11 L49 19 Q58 18 64 27 Q72 39 68 55 L64 71 L64 73 H31 Z"/>
  <path d="M49 24 Q58 24 61 33 Q65 44 61 56 L57 68 H50 Q58 53 58 42 Q57 31 49 24 Z" fill="#FFFFFF" fill-opacity=".66" stroke="none"/>
  <circle cx="40" cy="30" r="2.7" fill="#273638" stroke="none"/><path d="M24 38 L29 40" stroke="#273638" stroke-width="2.8"/><path d="M42 43 L49 40" stroke="#B58D42" stroke-width="2.8"/>
  <path d="M28 71 H68 Q68 75 71 77 Q76 81 77 86 H19 Q20 81 25 77 Q28 75 28 71 Z"/>
  <path d="M29 72 H67" fill="none" stroke="#B58D42" stroke-width="3"/>
  <path d="M25 82 H71" fill="none" stroke="#273638" stroke-opacity=".46" stroke-width="2"/>
  </g>
</symbol>
<symbol id="wR" viewBox="0 0 96 96">
  <g fill="#F7F1E4" stroke="#273638" stroke-width="2.8" stroke-linecap="round" stroke-linejoin="round">
  <path d="M25 15 H36 V25 H43 V15 H53 V25 H60 V15 H71 V36 L64 42 H61 L64 70 L65 73 H31 L32 70 L35 42 H32 L25 36 Z"/>
  <path d="M36 43 H43 L42 65 L38 69 H35 Z" fill="#FFFFFF" fill-opacity=".66" stroke="none"/>
  <path d="M29 35 H67" stroke="#B58D42" stroke-width="3"/><path d="M35 43 H61" stroke="#273638" stroke-width="2.4"/>
  <path d="M28 71 H68 Q68 75 71 77 Q76 81 77 86 H19 Q20 81 25 77 Q28 75 28 71 Z"/>
  <path d="M29 72 H67" fill="none" stroke="#B58D42" stroke-width="3"/>
  <path d="M25 82 H71" fill="none" stroke="#273638" stroke-opacity=".46" stroke-width="2"/>
  </g>
</symbol>
<symbol id="wP" viewBox="0 0 96 96">
  <g fill="#F7F1E4" stroke="#273638" stroke-width="2.8" stroke-linecap="round" stroke-linejoin="round">
  <path d="M42 39 H54 V47 Q54 60 65 70 L64 73 H32 L31 70 Q42 60 42 47 Z"/>
  <path d="M42 48 H47 Q47 59 39 68 H34 Q42 59 42 48 Z" fill="#FFFFFF" fill-opacity=".66" stroke="none"/>
  <circle cx="48" cy="27" r="13"/>
  <path d="M45 18 Q39 20 38 26" fill="none" stroke="#FFFFFF" stroke-opacity=".66" stroke-width="3.4"/>
  <path d="M38 45 H58" stroke="#B58D42" stroke-width="3"/>
  <path d="M28 71 H68 Q68 75 71 77 Q76 81 77 86 H19 Q20 81 25 77 Q28 75 28 71 Z"/>
  <path d="M29 72 H67" fill="none" stroke="#B58D42" stroke-width="3"/>
  <path d="M25 82 H71" fill="none" stroke="#273638" stroke-opacity=".46" stroke-width="2"/>
  </g>
</symbol>
<symbol id="bK" viewBox="0 0 96 96">
  <g fill="#243E42" stroke="#C0A671" stroke-width="2.8" stroke-linecap="round" stroke-linejoin="round">
  <path d="M43 7 H53 V16 H62 V26 H53 V34 H61 Q63 37 60 42 L57 48 Q55 59 66 70 L65 73 H31 L30 70 Q41 59 39 48 L36 42 Q33 37 35 34 H43 V26 H34 V16 H43 Z"/>
  <path d="M43 40 H48 V48 Q48 58 39 68 H34 Q44 58 43 48 Z" fill="#5D8A80" fill-opacity=".48" stroke="none"/>
  <path d="M38 38 H58" stroke="#C0A671" stroke-width="3"/><path d="M39 48 H57" stroke="#C0A671" stroke-width="2.4"/>
  <path d="M28 71 H68 Q68 75 71 77 Q76 81 77 86 H19 Q20 81 25 77 Q28 75 28 71 Z"/>
  <path d="M29 72 H67" fill="none" stroke="#C0A671" stroke-width="3"/>
  <path d="M25 82 H71" fill="none" stroke="#C0A671" stroke-opacity=".46" stroke-width="2"/>
  </g>
</symbol>
<symbol id="bQ" viewBox="0 0 96 96">
  <g fill="#243E42" stroke="#C0A671" stroke-width="2.8" stroke-linecap="round" stroke-linejoin="round">
  <path d="M28 44 L19 20 L33 31 L35 17 L43 31 L48 12 L53 31 L61 17 L63 31 L77 20 L68 44 Q66 49 56 51 Q56 61 66 70 L65 73 H31 L30 70 Q40 61 40 51 Q30 49 28 44 Z"/>
  <path d="M32 44 H42 L43 50 Q43 60 36 68 H33 Q42 59 40 50 Z" fill="#5D8A80" fill-opacity=".48" stroke="none"/>
  <circle cx="19" cy="20" r="3.4"/>
  <circle cx="35" cy="17" r="3.4"/>
  <circle cx="48" cy="12" r="3.4"/>
  <circle cx="61" cy="17" r="3.4"/>
  <circle cx="77" cy="20" r="3.4"/>
  <path d="M29 44 H67" stroke="#C0A671" stroke-width="3"/><path d="M40 52 H56" stroke="#C0A671" stroke-width="2.4"/>
  <path d="M28 71 H68 Q68 75 71 77 Q76 81 77 86 H19 Q20 81 25 77 Q28 75 28 71 Z"/>
  <path d="M29 72 H67" fill="none" stroke="#C0A671" stroke-width="3"/>
  <path d="M25 82 H71" fill="none" stroke="#C0A671" stroke-opacity=".46" stroke-width="2"/>
  </g>
</symbol>
<symbol id="bB" viewBox="0 0 96 96">
  <g fill="#243E42" stroke="#C0A671" stroke-width="2.8" stroke-linecap="round" stroke-linejoin="round">
  <path d="M48 11 C43 18 30 23 30 34 C30 43 36 48 42 51 Q42 60 32 70 L31 73 H65 L64 70 Q54 60 54 51 C60 48 66 43 66 34 C66 23 53 18 48 11 Z"/>
  <path d="M44 22 Q34 28 35 35 Q36 43 44 47 L43 52 Q43 60 36 68 H33 Q43 59 42 51 Q32 44 32 34 Q33 27 44 22 Z" fill="#5D8A80" fill-opacity=".48" stroke="none"/>
  <path d="M54 23 L44 36" stroke="#C0A671" stroke-width="4.5"/><path d="M40 52 H56" stroke="#C0A671" stroke-width="3"/>
  <path d="M28 71 H68 Q68 75 71 77 Q76 81 77 86 H19 Q20 81 25 77 Q28 75 28 71 Z"/>
  <path d="M29 72 H67" fill="none" stroke="#C0A671" stroke-width="3"/>
  <path d="M25 82 H71" fill="none" stroke="#C0A671" stroke-opacity=".46" stroke-width="2"/>
  </g>
</symbol>
<symbol id="bN" viewBox="0 0 96 96">
  <g fill="#243E42" stroke="#C0A671" stroke-width="2.8" stroke-linecap="round" stroke-linejoin="round">
  <path d="M30 71 Q32 62 40 55 L42 43 L29 47 L19 41 L23 31 L36 23 L39 11 L49 19 Q58 18 64 27 Q72 39 68 55 L64 71 L64 73 H31 Z"/>
  <path d="M49 24 Q58 24 61 33 Q65 44 61 56 L57 68 H50 Q58 53 58 42 Q57 31 49 24 Z" fill="#5D8A80" fill-opacity=".48" stroke="none"/>
  <circle cx="40" cy="30" r="2.7" fill="#C0A671" stroke="none"/><path d="M24 38 L29 40" stroke="#C0A671" stroke-width="2.8"/><path d="M42 43 L49 40" stroke="#C0A671" stroke-width="2.8"/>
  <path d="M28 71 H68 Q68 75 71 77 Q76 81 77 86 H19 Q20 81 25 77 Q28 75 28 71 Z"/>
  <path d="M29 72 H67" fill="none" stroke="#C0A671" stroke-width="3"/>
  <path d="M25 82 H71" fill="none" stroke="#C0A671" stroke-opacity=".46" stroke-width="2"/>
  </g>
</symbol>
<symbol id="bR" viewBox="0 0 96 96">
  <g fill="#243E42" stroke="#C0A671" stroke-width="2.8" stroke-linecap="round" stroke-linejoin="round">
  <path d="M25 15 H36 V25 H43 V15 H53 V25 H60 V15 H71 V36 L64 42 H61 L64 70 L65 73 H31 L32 70 L35 42 H32 L25 36 Z"/>
  <path d="M36 43 H43 L42 65 L38 69 H35 Z" fill="#5D8A80" fill-opacity=".48" stroke="none"/>
  <path d="M29 35 H67" stroke="#C0A671" stroke-width="3"/><path d="M35 43 H61" stroke="#C0A671" stroke-width="2.4"/>
  <path d="M28 71 H68 Q68 75 71 77 Q76 81 77 86 H19 Q20 81 25 77 Q28 75 28 71 Z"/>
  <path d="M29 72 H67" fill="none" stroke="#C0A671" stroke-width="3"/>
  <path d="M25 82 H71" fill="none" stroke="#C0A671" stroke-opacity=".46" stroke-width="2"/>
  </g>
</symbol>
<symbol id="bP" viewBox="0 0 96 96">
  <g fill="#243E42" stroke="#C0A671" stroke-width="2.8" stroke-linecap="round" stroke-linejoin="round">
  <path d="M42 39 H54 V47 Q54 60 65 70 L64 73 H32 L31 70 Q42 60 42 47 Z"/>
  <path d="M42 48 H47 Q47 59 39 68 H34 Q42 59 42 48 Z" fill="#5D8A80" fill-opacity=".48" stroke="none"/>
  <circle cx="48" cy="27" r="13"/>
  <path d="M45 18 Q39 20 38 26" fill="none" stroke="#5D8A80" stroke-opacity=".48" stroke-width="3.4"/>
  <path d="M38 45 H58" stroke="#C0A671" stroke-width="3"/>
  <path d="M28 71 H68 Q68 75 71 77 Q76 81 77 86 H19 Q20 81 25 77 Q28 75 28 71 Z"/>
  <path d="M29 72 H67" fill="none" stroke="#C0A671" stroke-width="3"/>
  <path d="M25 82 H71" fill="none" stroke="#C0A671" stroke-opacity=".46" stroke-width="2"/>
  </g>
</symbol>
<linearGradient id="wood" x2="1" y2="1"><stop stop-color="#604543"/><stop offset=".45" stop-color="#302a33"/><stop offset="1" stop-color="#634845"/></linearGradient><linearGradient id="panel" x2="1" y2="1"><stop stop-color="#302338"/><stop offset="1" stop-color="#241c2e"/></linearGradient><radialGradient id="glow"><stop stop-color="#624361" stop-opacity=".27"/><stop offset="1" stop-color="#15111e" stop-opacity="0"/></radialGradient><pattern id="grain" patternUnits="userSpaceOnUse" width="26" height="26"><path d="M-5 26L5 0M10 26L20 0M25 26L35 0" stroke="#32243b" stroke-opacity=".035" stroke-width="1"/></pattern><filter id="pieceShadow" x="-.2" y="-.2" width="1.4" height="1.5"><feDropShadow dx="0" dy="3" stdDeviation="1.4" flood-color="#211429" flood-opacity=".6"/></filter></defs><rect x="0" y="0" width="390" height="1050" rx="0" fill="#15111e"/><rect x="0" y="0" width="390" height="62" rx="0" fill="#181320"/><path d="M0 62H390" stroke="#d3b8fb" stroke-opacity="0.0784"/><rect x="18" y="22" width="11" height="11" rx="3" fill="#cbb5ff"/><rect x="32" y="22" width="11" height="11" rx="3" fill="#9478c2"/><rect x="18" y="36" width="11" height="11" rx="3" fill="#9478c2"/><rect x="32" y="36" width="11" height="11" rx="3" fill="#cbb5ff"/><text x="58" y="44" font-family="DejaVu Sans" font-size="25" fill="#ded0fb" font-weight="600" text-anchor="start" letter-spacing="-1.2">tabula</text><text x="372" y="29" font-family="DejaVu Sans" font-size="12" fill="#b7a4ca" font-weight="400" text-anchor="end">Bản thiết kế</text><text x="372" y="46" font-family="DejaVu Sans" font-size="12" fill="#b7a4ca" font-weight="400" text-anchor="end">dữ liệu mẫu</text><text x="18" y="89" font-family="DejaVu Sans" font-size="12" fill="#cfad77" font-weight="600" text-anchor="start" letter-spacing="1.1">CỜ VUA · BÀN GỖ TRẦM</text><text x="18" y="126" font-family="DejaVu Serif" font-size="25" fill="#f1eaf7" font-weight="400" text-anchor="start">Một nước. Một câu chuyện.</text><text x="18" y="151" font-family="DejaVu Sans" font-size="12" fill="#ac9ab8" font-weight="400" text-anchor="start">Bàn cờ yên tĩnh. Quân cờ có trọng lượng.</text><rect x="18" y="165" width="177" height="25" rx="8" fill="#261e32"/><text x="27" y="182" font-family="DejaVu Sans" font-size="12" fill="#bdacd0" font-weight="400" text-anchor="start">Không đồng hồ · mẫu</text><ellipse cx="195.0" cy="446.0" rx="288.0" ry="244.8" fill="url(#glow)"/><ellipse cx="195.0" cy="446.0" rx="180.0" ry="165.6" fill="none" stroke="#b098b8" stroke-opacity=".035"/><ellipse cx="195.0" cy="446.0" rx="222.0" ry="197.6" fill="none" stroke="#b098b8" stroke-opacity=".035"/><ellipse cx="195.0" cy="446.0" rx="264.0" ry="229.6" fill="none" stroke="#b098b8" stroke-opacity=".035"/><ellipse cx="195.0" cy="446.0" rx="306.0" ry="261.6" fill="none" stroke="#b098b8" stroke-opacity=".035"/><ellipse cx="195.0" cy="446.0" rx="348.0" ry="293.6" fill="none" stroke="#b098b8" stroke-opacity=".035"/><rect x="19" y="277" width="352" height="360" rx="10" fill="#0c0812" fill-opacity="0.6118"/><rect x="15" y="271" width="360" height="360" rx="11" fill="#221c25"/><rect x="15" y="210" width="40" height="40" rx="13" fill="#28363b" stroke="#a68b5b" stroke-opacity="0.5333" stroke-width="1"/><text x="35" y="238" font-family="DejaVu Serif" font-size="22" fill="#e3cca3" font-weight="400" text-anchor="middle">A</text><text x="67" y="225" font-family="DejaVu Sans" font-size="14" fill="#eddfef" font-weight="400" text-anchor="start">An</text><text x="67" y="244" font-family="DejaVu Sans" font-size="12" fill="#a997b5" font-weight="400" text-anchor="start">Quân đen · dữ liệu mẫu</text><text x="365" y="235" font-family="DejaVu Sans" font-size="12" fill="#8f7e9e" font-weight="400" text-anchor="end">Đang quan sát</text><rect x="15" y="266" width="360" height="360" rx="11" fill="url(#wood)" stroke="#a98a69" stroke-opacity="0.4667" stroke-width="1"/><rect x="19" y="270" width="352" height="352" rx="8" fill="none" stroke="#251f2f" stroke-width="4"/><rect x="25" y="276" width="340" height="340" rx="3" fill="none" stroke="#b08c6b" stroke-opacity="0.2667" stroke-width="1"/><rect x="33" y="284" width="324" height="324" rx="0" fill="#211a28" stroke="#c0a080" stroke-opacity="0.2667" stroke-width="1"/><text x="24.6" y="310.0" font-family="DejaVu Sans" font-size="12" fill="#d0bfae" font-weight="600" text-anchor="middle">8</text><rect x="35.0" y="286.0" width="40.0" height="40.0" rx="0" fill="#d0bdad"/><rect x="35.0" y="286.0" width="40.0" height="40.0" rx="0" fill="url(#grain)"/><ellipse cx="55.0" cy="319.832" rx="10.92" ry="2.1112" fill="#1a112a" opacity=".3"/><use xlink:href="#bR" x="36.8" y="287.8" width="36.4" height="36.4"/><rect x="75.0" y="286.0" width="40.0" height="40.0" rx="0" fill="#665368"/><rect x="75.0" y="286.0" width="40.0" height="40.0" rx="0" fill="url(#grain)"/><ellipse cx="95.0" cy="319.832" rx="10.92" ry="2.1112" fill="#1a112a" opacity=".3"/><use xlink:href="#bN" x="76.8" y="287.8" width="36.4" height="36.4"/><rect x="115.0" y="286.0" width="40.0" height="40.0" rx="0" fill="#d0bdad"/><rect x="115.0" y="286.0" width="40.0" height="40.0" rx="0" fill="url(#grain)"/><ellipse cx="135.0" cy="319.832" rx="10.92" ry="2.1112" fill="#1a112a" opacity=".3"/><use xlink:href="#bB" x="116.8" y="287.8" width="36.4" height="36.4"/><rect x="155.0" y="286.0" width="40.0" height="40.0" rx="0" fill="#665368"/><rect x="155.0" y="286.0" width="40.0" height="40.0" rx="0" fill="url(#grain)"/><ellipse cx="175.0" cy="319.832" rx="10.92" ry="2.1112" fill="#1a112a" opacity=".3"/><use xlink:href="#bQ" x="156.8" y="287.8" width="36.4" height="36.4"/><rect x="195.0" y="286.0" width="40.0" height="40.0" rx="0" fill="#d0bdad"/><rect x="195.0" y="286.0" width="40.0" height="40.0" rx="0" fill="url(#grain)"/><ellipse cx="215.0" cy="319.832" rx="10.92" ry="2.1112" fill="#1a112a" opacity=".3"/><use xlink:href="#bK" x="196.8" y="287.8" width="36.4" height="36.4"/><rect x="235.0" y="286.0" width="40.0" height="40.0" rx="0" fill="#665368"/><rect x="235.0" y="286.0" width="40.0" height="40.0" rx="0" fill="url(#grain)"/><ellipse cx="255.0" cy="319.832" rx="10.92" ry="2.1112" fill="#1a112a" opacity=".3"/><use xlink:href="#bB" x="236.8" y="287.8" width="36.4" height="36.4"/><rect x="275.0" y="286.0" width="40.0" height="40.0" rx="0" fill="#d0bdad"/><rect x="275.0" y="286.0" width="40.0" height="40.0" rx="0" fill="url(#grain)"/><ellipse cx="295.0" cy="319.832" rx="10.92" ry="2.1112" fill="#1a112a" opacity=".3"/><use xlink:href="#bN" x="276.8" y="287.8" width="36.4" height="36.4"/><rect x="315.0" y="286.0" width="40.0" height="40.0" rx="0" fill="#665368"/><rect x="315.0" y="286.0" width="40.0" height="40.0" rx="0" fill="url(#grain)"/><ellipse cx="335.0" cy="319.832" rx="10.92" ry="2.1112" fill="#1a112a" opacity=".3"/><use xlink:href="#bR" x="316.8" y="287.8" width="36.4" height="36.4"/><text x="24.6" y="350.0" font-family="DejaVu Sans" font-size="12" fill="#d0bfae" font-weight="600" text-anchor="middle">7</text><rect x="35.0" y="326.0" width="40.0" height="40.0" rx="0" fill="#665368"/><rect x="35.0" y="326.0" width="40.0" height="40.0" rx="0" fill="url(#grain)"/><ellipse cx="55.0" cy="359.832" rx="10.92" ry="2.1112" fill="#1a112a" opacity=".3"/><use xlink:href="#bP" x="36.8" y="327.8" width="36.4" height="36.4"/><rect x="75.0" y="326.0" width="40.0" height="40.0" rx="0" fill="#d0bdad"/><rect x="75.0" y="326.0" width="40.0" height="40.0" rx="0" fill="url(#grain)"/><ellipse cx="95.0" cy="359.832" rx="10.92" ry="2.1112" fill="#1a112a" opacity=".3"/><use xlink:href="#bP" x="76.8" y="327.8" width="36.4" height="36.4"/><rect x="115.0" y="326.0" width="40.0" height="40.0" rx="0" fill="#665368"/><rect x="115.0" y="326.0" width="40.0" height="40.0" rx="0" fill="url(#grain)"/><ellipse cx="135.0" cy="359.832" rx="10.92" ry="2.1112" fill="#1a112a" opacity=".3"/><use xlink:href="#bP" x="116.8" y="327.8" width="36.4" height="36.4"/><rect x="155.0" y="326.0" width="40.0" height="40.0" rx="0" fill="#d0bdad"/><rect x="155.0" y="326.0" width="40.0" height="40.0" rx="0" fill="url(#grain)"/><rect x="157.0" y="328.0" width="36.0" height="36.0" rx="0" fill="#c0a0f0" fill-opacity="0.1255" stroke="#d1b5ff" stroke-opacity="0.5333" stroke-width="1.5"/><rect x="195.0" y="326.0" width="40.0" height="40.0" rx="0" fill="#665368"/><rect x="195.0" y="326.0" width="40.0" height="40.0" rx="0" fill="url(#grain)"/><ellipse cx="215.0" cy="359.832" rx="10.92" ry="2.1112" fill="#1a112a" opacity=".3"/><use xlink:href="#bP" x="196.8" y="327.8" width="36.4" height="36.4"/><rect x="235.0" y="326.0" width="40.0" height="40.0" rx="0" fill="#d0bdad"/><rect x="235.0" y="326.0" width="40.0" height="40.0" rx="0" fill="url(#grain)"/><ellipse cx="255.0" cy="359.832" rx="10.92" ry="2.1112" fill="#1a112a" opacity=".3"/><use xlink:href="#bP" x="236.8" y="327.8" width="36.4" height="36.4"/><rect x="275.0" y="326.0" width="40.0" height="40.0" rx="0" fill="#665368"/><rect x="275.0" y="326.0" width="40.0" height="40.0" rx="0" fill="url(#grain)"/><ellipse cx="295.0" cy="359.832" rx="10.92" ry="2.1112" fill="#1a112a" opacity=".3"/><use xlink:href="#bP" x="276.8" y="327.8" width="36.4" height="36.4"/><rect x="315.0" y="326.0" width="40.0" height="40.0" rx="0" fill="#d0bdad"/><rect x="315.0" y="326.0" width="40.0" height="40.0" rx="0" fill="url(#grain)"/><ellipse cx="335.0" cy="359.832" rx="10.92" ry="2.1112" fill="#1a112a" opacity=".3"/><use xlink:href="#bP" x="316.8" y="327.8" width="36.4" height="36.4"/><text x="24.6" y="390.0" font-family="DejaVu Sans" font-size="12" fill="#d0bfae" font-weight="600" text-anchor="middle">6</text><rect x="35.0" y="366.0" width="40.0" height="40.0" rx="0" fill="#d0bdad"/><rect x="35.0" y="366.0" width="40.0" height="40.0" rx="0" fill="url(#grain)"/><rect x="75.0" y="366.0" width="40.0" height="40.0" rx="0" fill="#665368"/><rect x="75.0" y="366.0" width="40.0" height="40.0" rx="0" fill="url(#grain)"/><rect x="115.0" y="366.0" width="40.0" height="40.0" rx="0" fill="#d0bdad"/><rect x="115.0" y="366.0" width="40.0" height="40.0" rx="0" fill="url(#grain)"/><rect x="155.0" y="366.0" width="40.0" height="40.0" rx="0" fill="#665368"/><rect x="155.0" y="366.0" width="40.0" height="40.0" rx="0" fill="url(#grain)"/><rect x="195.0" y="366.0" width="40.0" height="40.0" rx="0" fill="#d0bdad"/><rect x="195.0" y="366.0" width="40.0" height="40.0" rx="0" fill="url(#grain)"/><rect x="235.0" y="366.0" width="40.0" height="40.0" rx="0" fill="#665368"/><rect x="235.0" y="366.0" width="40.0" height="40.0" rx="0" fill="url(#grain)"/><rect x="275.0" y="366.0" width="40.0" height="40.0" rx="0" fill="#d0bdad"/><rect x="275.0" y="366.0" width="40.0" height="40.0" rx="0" fill="url(#grain)"/><rect x="315.0" y="366.0" width="40.0" height="40.0" rx="0" fill="#665368"/><rect x="315.0" y="366.0" width="40.0" height="40.0" rx="0" fill="url(#grain)"/><text x="24.6" y="430.0" font-family="DejaVu Sans" font-size="12" fill="#d0bfae" font-weight="600" text-anchor="middle">5</text><rect x="35.0" y="406.0" width="40.0" height="40.0" rx="0" fill="#665368"/><rect x="35.0" y="406.0" width="40.0" height="40.0" rx="0" fill="url(#grain)"/><rect x="75.0" y="406.0" width="40.0" height="40.0" rx="0" fill="#d0bdad"/><rect x="75.0" y="406.0" width="40.0" height="40.0" rx="0" fill="url(#grain)"/><rect x="115.0" y="406.0" width="40.0" height="40.0" rx="0" fill="#665368"/><rect x="115.0" y="406.0" width="40.0" height="40.0" rx="0" fill="url(#grain)"/><rect x="155.0" y="406.0" width="40.0" height="40.0" rx="0" fill="#d0bdad"/><rect x="155.0" y="406.0" width="40.0" height="40.0" rx="0" fill="url(#grain)"/><rect x="157.0" y="408.0" width="36.0" height="36.0" rx="0" fill="#c0a0f0" fill-opacity="0.1255" stroke="#d1b5ff" stroke-opacity="0.5333" stroke-width="1.5"/><circle cx="175.0" cy="426.0" r="16.8" fill="none" stroke="#d8b9ff" stroke-width="2.5"/><ellipse cx="175.0" cy="439.832" rx="10.92" ry="2.1112" fill="#1a112a" opacity=".3"/><use xlink:href="#bP" x="156.8" y="407.8" width="36.4" height="36.4"/><rect x="195.0" y="406.0" width="40.0" height="40.0" rx="0" fill="#665368"/><rect x="195.0" y="406.0" width="40.0" height="40.0" rx="0" fill="url(#grain)"/><rect x="235.0" y="406.0" width="40.0" height="40.0" rx="0" fill="#d0bdad"/><rect x="235.0" y="406.0" width="40.0" height="40.0" rx="0" fill="url(#grain)"/><rect x="275.0" y="406.0" width="40.0" height="40.0" rx="0" fill="#665368"/><rect x="275.0" y="406.0" width="40.0" height="40.0" rx="0" fill="url(#grain)"/><rect x="315.0" y="406.0" width="40.0" height="40.0" rx="0" fill="#d0bdad"/><rect x="315.0" y="406.0" width="40.0" height="40.0" rx="0" fill="url(#grain)"/><text x="24.6" y="470.0" font-family="DejaVu Sans" font-size="12" fill="#d0bfae" font-weight="600" text-anchor="middle">4</text><rect x="35.0" y="446.0" width="40.0" height="40.0" rx="0" fill="#d0bdad"/><rect x="35.0" y="446.0" width="40.0" height="40.0" rx="0" fill="url(#grain)"/><rect x="75.0" y="446.0" width="40.0" height="40.0" rx="0" fill="#665368"/><rect x="75.0" y="446.0" width="40.0" height="40.0" rx="0" fill="url(#grain)"/><rect x="115.0" y="446.0" width="40.0" height="40.0" rx="0" fill="#d0bdad"/><rect x="115.0" y="446.0" width="40.0" height="40.0" rx="0" fill="url(#grain)"/><rect x="155.0" y="446.0" width="40.0" height="40.0" rx="0" fill="#665368"/><rect x="155.0" y="446.0" width="40.0" height="40.0" rx="0" fill="url(#grain)"/><rect x="195.0" y="446.0" width="40.0" height="40.0" rx="0" fill="#d0bdad"/><rect x="195.0" y="446.0" width="40.0" height="40.0" rx="0" fill="url(#grain)"/><rect x="197.0" y="448.0" width="36.0" height="36.0" rx="0" fill="#ae84dd" fill-opacity="0.1333" stroke="#c6a1f4" stroke-width="2.5"/><ellipse cx="215.0" cy="479.832" rx="10.92" ry="2.1112" fill="#1a112a" opacity=".3"/><use xlink:href="#wP" x="196.8" y="447.8" width="36.4" height="36.4"/><rect x="235.0" y="446.0" width="40.0" height="40.0" rx="0" fill="#665368"/><rect x="235.0" y="446.0" width="40.0" height="40.0" rx="0" fill="url(#grain)"/><rect x="275.0" y="446.0" width="40.0" height="40.0" rx="0" fill="#d0bdad"/><rect x="275.0" y="446.0" width="40.0" height="40.0" rx="0" fill="url(#grain)"/><rect x="315.0" y="446.0" width="40.0" height="40.0" rx="0" fill="#665368"/><rect x="315.0" y="446.0" width="40.0" height="40.0" rx="0" fill="url(#grain)"/><text x="24.6" y="510.0" font-family="DejaVu Sans" font-size="12" fill="#d0bfae" font-weight="600" text-anchor="middle">3</text><rect x="35.0" y="486.0" width="40.0" height="40.0" rx="0" fill="#665368"/><rect x="35.0" y="486.0" width="40.0" height="40.0" rx="0" fill="url(#grain)"/><rect x="75.0" y="486.0" width="40.0" height="40.0" rx="0" fill="#d0bdad"/><rect x="75.0" y="486.0" width="40.0" height="40.0" rx="0" fill="url(#grain)"/><rect x="115.0" y="486.0" width="40.0" height="40.0" rx="0" fill="#665368"/><rect x="115.0" y="486.0" width="40.0" height="40.0" rx="0" fill="url(#grain)"/><rect x="155.0" y="486.0" width="40.0" height="40.0" rx="0" fill="#d0bdad"/><rect x="155.0" y="486.0" width="40.0" height="40.0" rx="0" fill="url(#grain)"/><rect x="195.0" y="486.0" width="40.0" height="40.0" rx="0" fill="#665368"/><rect x="195.0" y="486.0" width="40.0" height="40.0" rx="0" fill="url(#grain)"/><rect x="235.0" y="486.0" width="40.0" height="40.0" rx="0" fill="#d0bdad"/><rect x="235.0" y="486.0" width="40.0" height="40.0" rx="0" fill="url(#grain)"/><rect x="275.0" y="486.0" width="40.0" height="40.0" rx="0" fill="#665368"/><rect x="275.0" y="486.0" width="40.0" height="40.0" rx="0" fill="url(#grain)"/><rect x="315.0" y="486.0" width="40.0" height="40.0" rx="0" fill="#d0bdad"/><rect x="315.0" y="486.0" width="40.0" height="40.0" rx="0" fill="url(#grain)"/><text x="24.6" y="550.0" font-family="DejaVu Sans" font-size="12" fill="#d0bfae" font-weight="600" text-anchor="middle">2</text><rect x="35.0" y="526.0" width="40.0" height="40.0" rx="0" fill="#d0bdad"/><rect x="35.0" y="526.0" width="40.0" height="40.0" rx="0" fill="url(#grain)"/><ellipse cx="55.0" cy="559.832" rx="10.92" ry="2.1112" fill="#1a112a" opacity=".3"/><use xlink:href="#wP" x="36.8" y="527.8" width="36.4" height="36.4"/><rect x="75.0" y="526.0" width="40.0" height="40.0" rx="0" fill="#665368"/><rect x="75.0" y="526.0" width="40.0" height="40.0" rx="0" fill="url(#grain)"/><ellipse cx="95.0" cy="559.832" rx="10.92" ry="2.1112" fill="#1a112a" opacity=".3"/><use xlink:href="#wP" x="76.8" y="527.8" width="36.4" height="36.4"/><rect x="115.0" y="526.0" width="40.0" height="40.0" rx="0" fill="#d0bdad"/><rect x="115.0" y="526.0" width="40.0" height="40.0" rx="0" fill="url(#grain)"/><ellipse cx="135.0" cy="559.832" rx="10.92" ry="2.1112" fill="#1a112a" opacity=".3"/><use xlink:href="#wP" x="116.8" y="527.8" width="36.4" height="36.4"/><rect x="155.0" y="526.0" width="40.0" height="40.0" rx="0" fill="#665368"/><rect x="155.0" y="526.0" width="40.0" height="40.0" rx="0" fill="url(#grain)"/><ellipse cx="175.0" cy="559.832" rx="10.92" ry="2.1112" fill="#1a112a" opacity=".3"/><use xlink:href="#wP" x="156.8" y="527.8" width="36.4" height="36.4"/><rect x="195.0" y="526.0" width="40.0" height="40.0" rx="0" fill="#d0bdad"/><rect x="195.0" y="526.0" width="40.0" height="40.0" rx="0" fill="url(#grain)"/><rect x="235.0" y="526.0" width="40.0" height="40.0" rx="0" fill="#665368"/><rect x="235.0" y="526.0" width="40.0" height="40.0" rx="0" fill="url(#grain)"/><ellipse cx="255.0" cy="559.832" rx="10.92" ry="2.1112" fill="#1a112a" opacity=".3"/><use xlink:href="#wP" x="236.8" y="527.8" width="36.4" height="36.4"/><rect x="275.0" y="526.0" width="40.0" height="40.0" rx="0" fill="#d0bdad"/><rect x="275.0" y="526.0" width="40.0" height="40.0" rx="0" fill="url(#grain)"/><ellipse cx="295.0" cy="559.832" rx="10.92" ry="2.1112" fill="#1a112a" opacity=".3"/><use xlink:href="#wP" x="276.8" y="527.8" width="36.4" height="36.4"/><rect x="315.0" y="526.0" width="40.0" height="40.0" rx="0" fill="#665368"/><rect x="315.0" y="526.0" width="40.0" height="40.0" rx="0" fill="url(#grain)"/><ellipse cx="335.0" cy="559.832" rx="10.92" ry="2.1112" fill="#1a112a" opacity=".3"/><use xlink:href="#wP" x="316.8" y="527.8" width="36.4" height="36.4"/><text x="24.6" y="590.0" font-family="DejaVu Sans" font-size="12" fill="#d0bfae" font-weight="600" text-anchor="middle">1</text><rect x="35.0" y="566.0" width="40.0" height="40.0" rx="0" fill="#665368"/><rect x="35.0" y="566.0" width="40.0" height="40.0" rx="0" fill="url(#grain)"/><ellipse cx="55.0" cy="599.832" rx="10.92" ry="2.1112" fill="#1a112a" opacity=".3"/><use xlink:href="#wR" x="36.8" y="567.8" width="36.4" height="36.4"/><rect x="75.0" y="566.0" width="40.0" height="40.0" rx="0" fill="#d0bdad"/><rect x="75.0" y="566.0" width="40.0" height="40.0" rx="0" fill="url(#grain)"/><ellipse cx="95.0" cy="599.832" rx="10.92" ry="2.1112" fill="#1a112a" opacity=".3"/><use xlink:href="#wN" x="76.8" y="567.8" width="36.4" height="36.4"/><rect x="115.0" y="566.0" width="40.0" height="40.0" rx="0" fill="#665368"/><rect x="115.0" y="566.0" width="40.0" height="40.0" rx="0" fill="url(#grain)"/><ellipse cx="135.0" cy="599.832" rx="10.92" ry="2.1112" fill="#1a112a" opacity=".3"/><use xlink:href="#wB" x="116.8" y="567.8" width="36.4" height="36.4"/><rect x="155.0" y="566.0" width="40.0" height="40.0" rx="0" fill="#d0bdad"/><rect x="155.0" y="566.0" width="40.0" height="40.0" rx="0" fill="url(#grain)"/><ellipse cx="175.0" cy="599.832" rx="10.92" ry="2.1112" fill="#1a112a" opacity=".3"/><use xlink:href="#wQ" x="156.8" y="567.8" width="36.4" height="36.4"/><rect x="195.0" y="566.0" width="40.0" height="40.0" rx="0" fill="#665368"/><rect x="195.0" y="566.0" width="40.0" height="40.0" rx="0" fill="url(#grain)"/><ellipse cx="215.0" cy="599.832" rx="10.92" ry="2.1112" fill="#1a112a" opacity=".3"/><use xlink:href="#wK" x="196.8" y="567.8" width="36.4" height="36.4"/><rect x="235.0" y="566.0" width="40.0" height="40.0" rx="0" fill="#d0bdad"/><rect x="235.0" y="566.0" width="40.0" height="40.0" rx="0" fill="url(#grain)"/><ellipse cx="255.0" cy="599.832" rx="10.92" ry="2.1112" fill="#1a112a" opacity=".3"/><use xlink:href="#wB" x="236.8" y="567.8" width="36.4" height="36.4"/><rect x="275.0" y="566.0" width="40.0" height="40.0" rx="0" fill="#665368"/><rect x="275.0" y="566.0" width="40.0" height="40.0" rx="0" fill="url(#grain)"/><ellipse cx="295.0" cy="599.832" rx="10.92" ry="2.1112" fill="#1a112a" opacity=".3"/><use xlink:href="#wN" x="276.8" y="567.8" width="36.4" height="36.4"/><rect x="315.0" y="566.0" width="40.0" height="40.0" rx="0" fill="#d0bdad"/><rect x="315.0" y="566.0" width="40.0" height="40.0" rx="0" fill="url(#grain)"/><ellipse cx="335.0" cy="599.832" rx="10.92" ry="2.1112" fill="#1a112a" opacity=".3"/><use xlink:href="#wR" x="316.8" y="567.8" width="36.4" height="36.4"/><text x="55.0" y="620.4" font-family="DejaVu Sans" font-size="12" fill="#d0bfae" font-weight="600" text-anchor="middle">a</text><text x="95.0" y="620.4" font-family="DejaVu Sans" font-size="12" fill="#d0bfae" font-weight="600" text-anchor="middle">b</text><text x="135.0" y="620.4" font-family="DejaVu Sans" font-size="12" fill="#d0bfae" font-weight="600" text-anchor="middle">c</text><text x="175.0" y="620.4" font-family="DejaVu Sans" font-size="12" fill="#d0bfae" font-weight="600" text-anchor="middle">d</text><text x="215.0" y="620.4" font-family="DejaVu Sans" font-size="12" fill="#d0bfae" font-weight="600" text-anchor="middle">e</text><text x="255.0" y="620.4" font-family="DejaVu Sans" font-size="12" fill="#d0bfae" font-weight="600" text-anchor="middle">f</text><text x="295.0" y="620.4" font-family="DejaVu Sans" font-size="12" fill="#d0bfae" font-weight="600" text-anchor="middle">g</text><text x="335.0" y="620.4" font-family="DejaVu Sans" font-size="12" fill="#d0bfae" font-weight="600" text-anchor="middle">h</text><rect x="21" y="272" width="6" height="6" fill="#785a45" stroke="#bc9d68" transform="rotate(45 24 275)"/><rect x="363" y="614" width="6" height="6" fill="#785a45" stroke="#bc9d68" transform="rotate(45 366 617)"/><rect x="15" y="645" width="40" height="40" rx="13" fill="#d3c3b0" stroke="#a68b5b" stroke-opacity="0.5333" stroke-width="1"/><text x="35" y="673" font-family="DejaVu Serif" font-size="22" fill="#433743" font-weight="400" text-anchor="middle">M</text><text x="67" y="660" font-family="DejaVu Sans" font-size="14" fill="#eddfef" font-weight="400" text-anchor="start">Minh</text><text x="67" y="679" font-family="DejaVu Sans" font-size="12" fill="#a997b5" font-weight="400" text-anchor="start">Quân trắng · dữ liệu mẫu</text><rect x="246" y="650" width="129" height="30" rx="9" fill="#332541" stroke="#705080" stroke-opacity="0.3333" stroke-width="1"/><text x="365" y="670" font-family="DejaVu Sans" font-size="12" fill="#ddc7ff" font-weight="400" text-anchor="end">Lượt trắng · mẫu</text><circle cx="18" cy="708" r="2.5" fill="#ad8bde"/><text x="28" y="712" font-family="DejaVu Sans" font-size="12" fill="#a595b2" font-weight="400" text-anchor="start">Chạm vào quân để xem gợi ý mẫu</text><text x="375" y="712" font-family="DejaVu Sans" font-size="12" fill="#816f91" font-weight="400" text-anchor="end">Hướng trắng</text><rect x="12" y="746" width="366" height="258" rx="20" fill="url(#panel)" stroke="#ccb0f5" stroke-opacity="0.1490" stroke-width="1"/><circle cx="37" cy="773" r="6" fill="#ead9bb" stroke="#aa916d"/><text x="51" y="777" font-family="DejaVu Sans" font-size="12" fill="#c7abed" font-weight="400" text-anchor="start" letter-spacing=".7">LƯỢT TRẮNG · MẪU</text><text x="356" y="777" font-family="DejaVu Sans" font-size="12" fill="#8e789f" font-weight="400" text-anchor="end">02 / 04</text><text x="34" y="818" font-family="DejaVu Serif" font-size="24" fill="#eadcf4" font-weight="400" text-anchor="start">Một tốt mở lối.</text><text x="34" y="849" font-family="DejaVu Sans" font-size="13" fill="#b9a6c9" font-weight="400" text-anchor="start">e4 → d5: quân tốt trắng tiến chéo,</text><text x="34" y="872" font-family="DejaVu Sans" font-size="13" fill="#b9a6c9" font-weight="400" text-anchor="start">quân bị bắt rời bàn.</text><text x="34.0" y="907" font-family="DejaVu Sans" font-size="12" fill="#c7ae8d" font-weight="400" text-anchor="start" letter-spacing="1.2">NHẤC</text><path d="M86.0 903h43.33333333333333" stroke="#b5945b" stroke-opacity="0.3333"/><text x="141.33333333333331" y="907" font-family="DejaVu Sans" font-size="12" fill="#c7ae8d" font-weight="400" text-anchor="start" letter-spacing="1.2">LƯỚT</text><path d="M193.33333333333331 903h43.33333333333333" stroke="#b5945b" stroke-opacity="0.3333"/><text x="248.66666666666666" y="907" font-family="DejaVu Sans" font-size="12" fill="#c7ae8d" font-weight="400" text-anchor="start" letter-spacing="1.2">ĐẶT</text><rect x="33" y="927" width="324" height="47" rx="13" fill="#cbb5ff"/><text x="47" y="956" font-family="DejaVu Sans" font-size="12" fill="#352146" font-weight="400" text-anchor="start">Xem nước mẫu e4 → d5</text><text x="343" y="958" font-family="DejaVu Sans" font-size="22" fill="#352146" font-weight="400" text-anchor="end">↗</text><text x="34" y="994" font-family="DejaVu Sans" font-size="12" fill="#927da2" font-weight="400" text-anchor="start">Chuỗi 4 nước cố định · dữ liệu mẫu</text><text x="16" y="1023" font-family="DejaVu Sans" font-size="12" fill="#84718f" font-weight="400" text-anchor="start">Bản thiết kế • dữ liệu mẫu</text><text x="374" y="1023" font-family="DejaVu Sans" font-size="12" fill="#b19bc5" font-weight="400" text-anchor="end">Công cụ mẫu  ⌄</text></svg>